<svg xmlns="http://www.w3.org/2000/svg" width="30" height="30" fill="#8A2BE2" class="bi bi-globe me-2" viewBox="0 0 16 16">
    <path d="M0 8a8 8 0 1 1 16 0A8 8 0 0 1 0 8zm8-7a7 7 0 0 0-6.74 4.79c.18.26.39.51.61.73A4.99 4.99 0 0 0 5 8a4.99 4.99 0 0 0-2.13 1.48c-.22.22-.43.47-.61.73A7 7 0 0 0 8 15a7 7 0 0 0 6.74-4.79 10.87 10.87 0 0 0-.61-.73A4.99 4.99 0 0 0 11 8c.78 0 1.5.23 2.13.48.22.22.43.47.61.73A7 7 0 0 0 8 1zm4.44 9.56a4.99 4.99 0 0 0-1.07-.67 5.003 5.003 0 0 0 0-3.78 4.99 4.99 0 0 0 1.07-.67A6.993 6.993 0 0 0 13 8c0 .78-.23 1.5-.56 2.13zm-8.88 0A6.993 6.993 0 0 1 3 8c0-.78.23-1.5.56-2.13.22.22.43.47.61.73.68 1.36.68 3.15 0 4.52-.18.26-.39.51-.61.73zM6 10.6a4.995 4.995 0 0 0 4 0c.39-.8.61-1.75.61-2.6s-.22-1.8-.61-2.6a4.995 4.995 0 0 0-4 0c-.39.8-.61 1.75-.61 2.6s.22 1.8.61 2.6z"/>
</svg>
